<?xml version="1.0" encoding="UTF-8" standalone="no"?>
<!DOCTYPE svg PUBLIC "-//W3C//DTD SVG 1.1//EN"
 "http://www.w3.org/Graphics/SVG/1.1/DTD/svg11.dtd">
<!-- Generated by graphviz version 2.40.1 (20161225.0304)
 -->
<!-- Title: dependencies Pages: 1 -->
<svg width="3988pt" height="374pt"
 viewBox="0.00 0.00 3988.00 374.00" xmlns="http://www.w3.org/2000/svg" xmlns:xlink="http://www.w3.org/1999/xlink">
<g id="graph0" class="graph" transform="scale(1 1) rotate(0) translate(4 370)">
<title>dependencies</title>
<polygon fill="#ffffff" stroke="transparent" points="-4,4 -4,-370 3984,-370 3984,4 -4,4"/>
<text text-anchor="start" x="1969.0091" y="-42.4" font-family="sans-serif" font-weight="bold" font-size="14.00" fill="#000000">Legend</text>
<polygon fill="#ffffb3" stroke="transparent" points="1756,-10 1756,-30 1776,-30 1776,-10 1756,-10"/>
<text text-anchor="start" x="1779.629" y="-15.4" font-family="sans-serif" font-size="14.00" fill="#000000"> &#160;Declarations</text>
<polygon fill="#8dd3c7" stroke="transparent" points="1869,-10 1869,-30 1889,-30 1889,-10 1869,-10"/>
<text text-anchor="start" x="1892.7251" y="-15.4" font-family="sans-serif" font-size="14.00" fill="#000000"> &#160;Module</text>
<polygon fill="#80b1d3" stroke="transparent" points="1955,-10 1955,-30 1975,-30 1975,-10 1955,-10"/>
<text text-anchor="start" x="1978.7812" y="-15.4" font-family="sans-serif" font-size="14.00" fill="#000000"> &#160;Bootstrap</text>
<polygon fill="#fdb462" stroke="transparent" points="2052,-10 2052,-30 2072,-30 2072,-10 2052,-10"/>
<text text-anchor="start" x="2075.6732" y="-15.4" font-family="sans-serif" font-size="14.00" fill="#000000"> &#160;Providers</text>
<polygon fill="#fb8072" stroke="transparent" points="2148,-10 2148,-30 2168,-30 2168,-10 2148,-10"/>
<text text-anchor="start" x="2171.7258" y="-15.4" font-family="sans-serif" font-size="14.00" fill="#000000"> &#160;Exports</text>
<g id="clust1" class="cluster">
<title>cluster_AppModule</title>
<polygon fill="none" stroke="#000000" stroke-dasharray="1,5" points="129,-146 129,-358 622,-358 622,-146 129,-146"/>
</g>
<g id="clust2" class="cluster">
<title>cluster_AppModule_declarations</title>
<polygon fill="none" stroke="#000000" points="137,-154 137,-206 259,-206 259,-154 137,-154"/>
</g>
<g id="clust4" class="cluster">
<title>cluster_AppModule_imports</title>
<polygon fill="none" stroke="#000000" points="267,-154 267,-206 614,-206 614,-154 267,-154"/>
</g>
<g id="clust6" class="cluster">
<title>cluster_AppModule_bootstrap</title>
<polygon fill="none" stroke="#000000" points="309,-298 309,-350 433,-350 433,-298 309,-298"/>
</g>
<g id="clust14" class="cluster">
<title>cluster_ClientsModule</title>
<polygon fill="none" stroke="#000000" stroke-dasharray="1,5" points="664,-70 664,-206 1301,-206 1301,-70 664,-70"/>
</g>
<g id="clust15" class="cluster">
<title>cluster_ClientsModule_declarations</title>
<polygon fill="none" stroke="#000000" points="840,-78 840,-130 1293,-130 1293,-78 840,-78"/>
</g>
<g id="clust19" class="cluster">
<title>cluster_ClientsModule_imports</title>
<polygon fill="none" stroke="#000000" points="672,-78 672,-130 832,-130 832,-78 672,-78"/>
</g>
<g id="clust29" class="cluster">
<title>cluster_LoginModule</title>
<polygon fill="none" stroke="#000000" stroke-dasharray="1,5" points="630,-222 630,-290 974,-290 974,-222 630,-222"/>
</g>
<g id="clust30" class="cluster">
<title>cluster_LoginModule_declarations</title>
<polygon fill="none" stroke="#000000" points="808,-230 808,-282 966,-282 966,-230 808,-230"/>
</g>
<g id="clust33" class="cluster">
<title>cluster_LoginModule_exports</title>
<polygon fill="none" stroke="#000000" points="638,-230 638,-282 800,-282 800,-230 638,-230"/>
</g>
<g id="clust36" class="cluster">
<title>cluster_PageNotFoundModule</title>
<polygon fill="none" stroke="#000000" stroke-dasharray="1,5" points="1309,-70 1309,-206 1745,-206 1745,-70 1309,-70"/>
</g>
<g id="clust37" class="cluster">
<title>cluster_PageNotFoundModule_declarations</title>
<polygon fill="none" stroke="#000000" points="1529,-78 1529,-130 1737,-130 1737,-78 1529,-78"/>
</g>
<g id="clust39" class="cluster">
<title>cluster_PageNotFoundModule_imports</title>
<polygon fill="none" stroke="#000000" points="1317,-78 1317,-130 1521,-130 1521,-78 1317,-78"/>
</g>
<g id="clust49" class="cluster">
<title>cluster_PrestationsModule</title>
<polygon fill="none" stroke="#000000" stroke-dasharray="1,5" points="1753,-70 1753,-206 2599,-206 2599,-70 1753,-70"/>
</g>
<g id="clust50" class="cluster">
<title>cluster_PrestationsModule_declarations</title>
<polygon fill="none" stroke="#000000" points="1761,-78 1761,-130 2285,-130 2285,-78 1761,-78"/>
</g>
<g id="clust54" class="cluster">
<title>cluster_PrestationsModule_imports</title>
<polygon fill="none" stroke="#000000" points="2293,-78 2293,-130 2591,-130 2591,-78 2293,-78"/>
</g>
<g id="clust64" class="cluster">
<title>cluster_SharedModule</title>
<polygon fill="none" stroke="#000000" stroke-dasharray="1,5" points="2607,-146 2607,-214 3619,-214 3619,-146 2607,-146"/>
</g>
<g id="clust65" class="cluster">
<title>cluster_SharedModule_declarations</title>
<polygon fill="none" stroke="#000000" points="3119,-154 3119,-206 3611,-206 3611,-154 3119,-154"/>
</g>
<g id="clust71" class="cluster">
<title>cluster_SharedModule_exports</title>
<polygon fill="none" stroke="#000000" points="2615,-154 2615,-206 3111,-206 3111,-154 2615,-154"/>
</g>
<g id="clust74" class="cluster">
<title>cluster_TemplatesModule</title>
<polygon fill="none" stroke="#000000" stroke-dasharray="1,5" points="3627,-70 3627,-290 3972,-290 3972,-70 3627,-70"/>
</g>
<g id="clust75" class="cluster">
<title>cluster_TemplatesModule_declarations</title>
<polygon fill="none" stroke="#000000" points="3639,-78 3639,-130 3961,-130 3961,-78 3639,-78"/>
</g>
<g id="clust79" class="cluster">
<title>cluster_TemplatesModule_exports</title>
<polygon fill="none" stroke="#000000" points="3635,-230 3635,-282 3964,-282 3964,-230 3635,-230"/>
</g>
<g id="clust82" class="cluster">
<title>cluster_UiModule</title>
<polygon fill="none" stroke="#000000" stroke-dasharray="1,5" points="8,-70 8,-138 656,-138 656,-70 8,-70"/>
</g>
<g id="clust83" class="cluster">
<title>cluster_UiModule_declarations</title>
<polygon fill="none" stroke="#000000" points="138,-78 138,-130 648,-130 648,-78 138,-78"/>
</g>
<g id="clust89" class="cluster">
<title>cluster_UiModule_exports</title>
<polygon fill="none" stroke="#000000" points="16,-78 16,-130 130,-130 130,-78 16,-78"/>
</g>
<!-- AppComponent -->
<g id="node1" class="node">
<title>AppComponent</title>
<polygon fill="#ffffb3" stroke="#000000" points="250.9399,-198 145.0601,-198 145.0601,-162 250.9399,-162 250.9399,-198"/>
<text text-anchor="middle" x="198" y="-175.8" font-family="Times,serif" font-size="14.00" fill="#000000">AppComponent</text>
</g>
<!-- AppModule -->
<g id="node2" class="node">
<title>AppModule</title>
<polygon fill="#8dd3c7" stroke="#000000" points="412.6571,-274 409.6571,-278 388.6571,-278 385.6571,-274 329.3429,-274 329.3429,-238 412.6571,-238 412.6571,-274"/>
<text text-anchor="middle" x="371" y="-251.8" font-family="Times,serif" font-size="14.00" fill="#000000">AppModule</text>
</g>
<!-- AppComponent&#45;&gt;AppModule -->
<g id="edge1" class="edge">
<title>AppComponent&#45;&gt;AppModule</title>
<path fill="none" stroke="#000000" d="M198,-198.0109C198,-220.4852 198,-256 198,-256 198,-256 319.1215,-256 319.1215,-256"/>
<polygon fill="#000000" stroke="#000000" points="319.1216,-259.5001 329.1215,-256 319.1215,-252.5001 319.1216,-259.5001"/>
</g>
<!-- AppComponent  -->
<g id="node6" class="node">
<title>AppComponent </title>
<polygon fill="#80b1d3" stroke="#000000" points="425.439,-342 316.561,-342 316.561,-306 425.439,-306 425.439,-342"/>
<text text-anchor="middle" x="371" y="-319.8" font-family="Times,serif" font-size="14.00" fill="#000000">AppComponent </text>
</g>
<!-- AppModule&#45;&gt;AppComponent  -->
<g id="edge5" class="edge">
<title>AppModule&#45;&gt;AppComponent </title>
<path fill="none" stroke="#000000" stroke-dasharray="1,5" d="M371,-274.2228C371,-274.2228 371,-295.7269 371,-295.7269"/>
<polygon fill="#000000" stroke="#000000" points="367.5001,-295.7269 371,-305.7269 374.5001,-295.727 367.5001,-295.7269"/>
</g>
<!-- AppRoutingModule -->
<g id="node3" class="node">
<title>AppRoutingModule</title>
<polygon fill="#8dd3c7" stroke="#000000" points="495.2744,-198 492.2744,-202 471.2744,-202 468.2744,-198 366.7256,-198 366.7256,-162 495.2744,-162 495.2744,-198"/>
<text text-anchor="middle" x="431" y="-175.8" font-family="Times,serif" font-size="14.00" fill="#000000">AppRoutingModule</text>
</g>
<!-- AppRoutingModule&#45;&gt;AppModule -->
<g id="edge2" class="edge">
<title>AppRoutingModule&#45;&gt;AppModule</title>
<path fill="none" stroke="#000000" d="M389.7206,-198.0109C389.7206,-198.0109 389.7206,-227.855 389.7206,-227.855"/>
<polygon fill="#000000" stroke="#000000" points="386.2206,-227.8549 389.7206,-237.855 393.2206,-227.855 386.2206,-227.8549"/>
</g>
<!-- LoginModule -->
<g id="node4" class="node">
<title>LoginModule</title>
<polygon fill="#8dd3c7" stroke="#000000" points="606.493,-198 603.493,-202 582.493,-202 579.493,-198 513.507,-198 513.507,-162 606.493,-162 606.493,-198"/>
<text text-anchor="middle" x="560" y="-175.8" font-family="Times,serif" font-size="14.00" fill="#000000">LoginModule</text>
</g>
<!-- LoginModule&#45;&gt;AppModule -->
<g id="edge3" class="edge">
<title>LoginModule&#45;&gt;AppModule</title>
<path fill="none" stroke="#000000" d="M560,-198.0109C560,-220.4852 560,-256 560,-256 560,-256 422.9452,-256 422.9452,-256"/>
<polygon fill="#000000" stroke="#000000" points="422.9453,-252.5001 412.9452,-256 422.9452,-259.5001 422.9453,-252.5001"/>
</g>
<!-- PageLoginComponent  -->
<g id="node13" class="node">
<title>PageLoginComponent </title>
<polygon fill="#fb8072" stroke="#000000" points="791.9882,-274 646.0118,-274 646.0118,-238 791.9882,-238 791.9882,-274"/>
<text text-anchor="middle" x="719" y="-251.8" font-family="Times,serif" font-size="14.00" fill="#000000">PageLoginComponent </text>
</g>
<!-- LoginModule&#45;&gt;PageLoginComponent  -->
<g id="edge11" class="edge">
<title>LoginModule&#45;&gt;PageLoginComponent </title>
<path fill="none" stroke="#000000" stroke-dasharray="5,2" d="M606.6983,-189C633.9625,-189 663.0444,-189 663.0444,-189 663.0444,-189 663.0444,-227.692 663.0444,-227.692"/>
<polygon fill="#000000" stroke="#000000" points="659.5444,-227.6919 663.0444,-237.692 666.5444,-227.692 659.5444,-227.6919"/>
</g>
<!-- UiModule -->
<g id="node5" class="node">
<title>UiModule</title>
<polygon fill="#8dd3c7" stroke="#000000" points="348.5484,-198 345.5484,-202 324.5484,-202 321.5484,-198 275.4516,-198 275.4516,-162 348.5484,-162 348.5484,-198"/>
<text text-anchor="middle" x="312" y="-175.8" font-family="Times,serif" font-size="14.00" fill="#000000">UiModule</text>
</g>
<!-- UiModule&#45;&gt;AppModule -->
<g id="edge4" class="edge">
<title>UiModule&#45;&gt;AppModule</title>
<path fill="none" stroke="#000000" d="M338.9727,-198.0109C338.9727,-198.0109 338.9727,-227.855 338.9727,-227.855"/>
<polygon fill="#000000" stroke="#000000" points="335.4727,-227.8549 338.9727,-237.855 342.4727,-227.855 335.4727,-227.8549"/>
</g>
<!-- UiComponent  -->
<g id="node40" class="node">
<title>UiComponent </title>
<polygon fill="#fb8072" stroke="#000000" points="122.3297,-122 23.6703,-122 23.6703,-86 122.3297,-86 122.3297,-122"/>
<text text-anchor="middle" x="73" y="-99.8" font-family="Times,serif" font-size="14.00" fill="#000000">UiComponent </text>
</g>
<!-- UiModule&#45;&gt;UiComponent  -->
<g id="edge35" class="edge">
<title>UiModule&#45;&gt;UiComponent </title>
<path fill="none" stroke="#000000" stroke-dasharray="5,2" d="M289.9359,-161.8533C289.9359,-148.2605 289.9359,-132 289.9359,-132 289.9359,-132 73,-132 73,-132 73,-132 73,-131.0207 73,-131.0207"/>
<polygon fill="#000000" stroke="#000000" points="76.5001,-132.2069 73,-122.207 69.5001,-132.207 76.5001,-132.2069"/>
</g>
<!-- ClientComponent -->
<g id="node7" class="node">
<title>ClientComponent</title>
<polygon fill="#ffffb3" stroke="#000000" points="1284.5563,-122 1169.4437,-122 1169.4437,-86 1284.5563,-86 1284.5563,-122"/>
<text text-anchor="middle" x="1227" y="-99.8" font-family="Times,serif" font-size="14.00" fill="#000000">ClientComponent</text>
</g>
<!-- ClientsModule -->
<g id="node10" class="node">
<title>ClientsModule</title>
<polygon fill="#8dd3c7" stroke="#000000" points="1048.7176,-198 1045.7176,-202 1024.7176,-202 1021.7176,-198 949.2824,-198 949.2824,-162 1048.7176,-162 1048.7176,-198"/>
<text text-anchor="middle" x="999" y="-175.8" font-family="Times,serif" font-size="14.00" fill="#000000">ClientsModule</text>
</g>
<!-- ClientComponent&#45;&gt;ClientsModule -->
<g id="edge6" class="edge">
<title>ClientComponent&#45;&gt;ClientsModule</title>
<path fill="none" stroke="#000000" d="M1227,-122.0109C1227,-144.4852 1227,-180 1227,-180 1227,-180 1058.7538,-180 1058.7538,-180"/>
<polygon fill="#000000" stroke="#000000" points="1058.7539,-176.5001 1048.7538,-180 1058.7538,-183.5001 1058.7539,-176.5001"/>
</g>
<!-- ListClientsComponent -->
<g id="node8" class="node">
<title>ListClientsComponent</title>
<polygon fill="#ffffb3" stroke="#000000" points="1151.2786,-122 1008.7214,-122 1008.7214,-86 1151.2786,-86 1151.2786,-122"/>
<text text-anchor="middle" x="1080" y="-99.8" font-family="Times,serif" font-size="14.00" fill="#000000">ListClientsComponent</text>
</g>
<!-- ListClientsComponent&#45;&gt;ClientsModule -->
<g id="edge7" class="edge">
<title>ListClientsComponent&#45;&gt;ClientsModule</title>
<path fill="none" stroke="#000000" d="M1028.6098,-122.0109C1028.6098,-122.0109 1028.6098,-151.855 1028.6098,-151.855"/>
<polygon fill="#000000" stroke="#000000" points="1025.1098,-151.8549 1028.6098,-161.855 1032.1098,-151.855 1025.1098,-151.8549"/>
</g>
<!-- PageClientComponent -->
<g id="node9" class="node">
<title>PageClientComponent</title>
<polygon fill="#ffffb3" stroke="#000000" points="990.2674,-122 847.7326,-122 847.7326,-86 990.2674,-86 990.2674,-122"/>
<text text-anchor="middle" x="919" y="-99.8" font-family="Times,serif" font-size="14.00" fill="#000000">PageClientComponent</text>
</g>
<!-- PageClientComponent&#45;&gt;ClientsModule -->
<g id="edge8" class="edge">
<title>PageClientComponent&#45;&gt;ClientsModule</title>
<path fill="none" stroke="#000000" d="M969.8875,-122.0109C969.8875,-122.0109 969.8875,-151.855 969.8875,-151.855"/>
<polygon fill="#000000" stroke="#000000" points="966.3875,-151.8549 969.8875,-161.855 973.3875,-151.855 966.3875,-151.8549"/>
</g>
<!-- ClientsRoutingModule -->
<g id="node11" class="node">
<title>ClientsRoutingModule</title>
<polygon fill="#8dd3c7" stroke="#000000" points="824.3356,-122 821.3356,-126 800.3356,-126 797.3356,-122 679.6644,-122 679.6644,-86 824.3356,-86 824.3356,-122"/>
<text text-anchor="middle" x="752" y="-99.8" font-family="Times,serif" font-size="14.00" fill="#000000">ClientsRoutingModule</text>
</g>
<!-- ClientsRoutingModule&#45;&gt;ClientsModule -->
<g id="edge9" class="edge">
<title>ClientsRoutingModule&#45;&gt;ClientsModule</title>
<path fill="none" stroke="#000000" d="M821.4472,-122.308C821.4472,-142.1455 821.4472,-171 821.4472,-171 821.4472,-171 939.0691,-171 939.0691,-171"/>
<polygon fill="#000000" stroke="#000000" points="939.0692,-174.5001 949.0691,-171 939.0691,-167.5001 939.0692,-174.5001"/>
</g>
<!-- PageLoginComponent -->
<g id="node12" class="node">
<title>PageLoginComponent</title>
<polygon fill="#ffffb3" stroke="#000000" points="957.9874,-274 816.0126,-274 816.0126,-238 957.9874,-238 957.9874,-274"/>
<text text-anchor="middle" x="887" y="-251.8" font-family="Times,serif" font-size="14.00" fill="#000000">PageLoginComponent</text>
</g>
<!-- PageLoginComponent&#45;&gt;LoginModule -->
<g id="edge10" class="edge">
<title>PageLoginComponent&#45;&gt;LoginModule</title>
<path fill="none" stroke="#000000" d="M818.7267,-237.9891C818.7267,-215.5148 818.7267,-180 818.7267,-180 818.7267,-180 616.554,-180 616.554,-180"/>
<polygon fill="#000000" stroke="#000000" points="616.554,-176.5001 606.554,-180 616.5539,-183.5001 616.554,-176.5001"/>
</g>
<!-- PagePageNotFoundComponent -->
<g id="node14" class="node">
<title>PagePageNotFoundComponent</title>
<polygon fill="#ffffb3" stroke="#000000" points="1729.0364,-122 1536.9636,-122 1536.9636,-86 1729.0364,-86 1729.0364,-122"/>
<text text-anchor="middle" x="1633" y="-99.8" font-family="Times,serif" font-size="14.00" fill="#000000">PagePageNotFoundComponent</text>
</g>
<!-- PageNotFoundModule -->
<g id="node15" class="node">
<title>PageNotFoundModule</title>
<polygon fill="#8dd3c7" stroke="#000000" points="1597.5421,-198 1594.5421,-202 1573.5421,-202 1570.5421,-198 1454.4579,-198 1454.4579,-162 1597.5421,-162 1597.5421,-198"/>
<text text-anchor="middle" x="1526" y="-175.8" font-family="Times,serif" font-size="14.00" fill="#000000">PageNotFoundModule</text>
</g>
<!-- PagePageNotFoundComponent&#45;&gt;PageNotFoundModule -->
<g id="edge12" class="edge">
<title>PagePageNotFoundComponent&#45;&gt;PageNotFoundModule</title>
<path fill="none" stroke="#000000" d="M1567.2514,-122.0109C1567.2514,-122.0109 1567.2514,-151.855 1567.2514,-151.855"/>
<polygon fill="#000000" stroke="#000000" points="1563.7515,-151.8549 1567.2514,-161.855 1570.7515,-151.855 1563.7515,-151.8549"/>
</g>
<!-- PageNotFoundRoutingModule -->
<g id="node16" class="node">
<title>PageNotFoundRoutingModule</title>
<polygon fill="#8dd3c7" stroke="#000000" points="1513.1595,-122 1510.1595,-126 1489.1595,-126 1486.1595,-122 1324.8405,-122 1324.8405,-86 1513.1595,-86 1513.1595,-122"/>
<text text-anchor="middle" x="1419" y="-99.8" font-family="Times,serif" font-size="14.00" fill="#000000">PageNotFoundRoutingModule</text>
</g>
<!-- PageNotFoundRoutingModule&#45;&gt;PageNotFoundModule -->
<g id="edge13" class="edge">
<title>PageNotFoundRoutingModule&#45;&gt;PageNotFoundModule</title>
<path fill="none" stroke="#000000" d="M1483.7795,-122.0109C1483.7795,-122.0109 1483.7795,-151.855 1483.7795,-151.855"/>
<polygon fill="#000000" stroke="#000000" points="1480.2795,-151.8549 1483.7795,-161.855 1487.2795,-151.855 1480.2795,-151.8549"/>
</g>
<!-- ListPrestationsComponent -->
<g id="node17" class="node">
<title>ListPrestationsComponent</title>
<polygon fill="#ffffb3" stroke="#000000" points="2277.0448,-122 2112.9552,-122 2112.9552,-86 2277.0448,-86 2277.0448,-122"/>
<text text-anchor="middle" x="2195" y="-99.8" font-family="Times,serif" font-size="14.00" fill="#000000">ListPrestationsComponent</text>
</g>
<!-- PrestationsModule -->
<g id="node20" class="node">
<title>PrestationsModule</title>
<polygon fill="#8dd3c7" stroke="#000000" points="2255.4832,-198 2252.4832,-202 2231.4832,-202 2228.4832,-198 2134.5168,-198 2134.5168,-162 2255.4832,-162 2255.4832,-198"/>
<text text-anchor="middle" x="2195" y="-175.8" font-family="Times,serif" font-size="14.00" fill="#000000">PrestationsModule</text>
</g>
<!-- ListPrestationsComponent&#45;&gt;PrestationsModule -->
<g id="edge14" class="edge">
<title>ListPrestationsComponent&#45;&gt;PrestationsModule</title>
<path fill="none" stroke="#000000" d="M2195,-122.0109C2195,-122.0109 2195,-151.855 2195,-151.855"/>
<polygon fill="#000000" stroke="#000000" points="2191.5001,-151.8549 2195,-161.855 2198.5001,-151.855 2191.5001,-151.8549"/>
</g>
<!-- PagePrestationsComponent -->
<g id="node18" class="node">
<title>PagePrestationsComponent</title>
<polygon fill="#ffffb3" stroke="#000000" points="2094.9776,-122 1925.0224,-122 1925.0224,-86 2094.9776,-86 2094.9776,-122"/>
<text text-anchor="middle" x="2010" y="-99.8" font-family="Times,serif" font-size="14.00" fill="#000000">PagePrestationsComponent</text>
</g>
<!-- PagePrestationsComponent&#45;&gt;PrestationsModule -->
<g id="edge15" class="edge">
<title>PagePrestationsComponent&#45;&gt;PrestationsModule</title>
<path fill="none" stroke="#000000" d="M2010,-122.0267C2010,-142.7672 2010,-174 2010,-174 2010,-174 2124.4241,-174 2124.4241,-174"/>
<polygon fill="#000000" stroke="#000000" points="2124.4241,-177.5001 2134.4241,-174 2124.424,-170.5001 2124.4241,-177.5001"/>
</g>
<!-- PrestationComponent -->
<g id="node19" class="node">
<title>PrestationComponent</title>
<polygon fill="#ffffb3" stroke="#000000" points="1906.8216,-122 1769.1784,-122 1769.1784,-86 1906.8216,-86 1906.8216,-122"/>
<text text-anchor="middle" x="1838" y="-99.8" font-family="Times,serif" font-size="14.00" fill="#000000">PrestationComponent</text>
</g>
<!-- PrestationComponent&#45;&gt;PrestationsModule -->
<g id="edge16" class="edge">
<title>PrestationComponent&#45;&gt;PrestationsModule</title>
<path fill="none" stroke="#000000" d="M1838,-122.1985C1838,-146.3563 1838,-186 1838,-186 1838,-186 2124.4398,-186 2124.4398,-186"/>
<polygon fill="#000000" stroke="#000000" points="2124.4399,-189.5001 2134.4398,-186 2124.4398,-182.5001 2124.4399,-189.5001"/>
</g>
<!-- PrestationsRoutingModule -->
<g id="node21" class="node">
<title>PrestationsRoutingModule</title>
<polygon fill="#8dd3c7" stroke="#000000" points="2467.101,-122 2464.101,-126 2443.101,-126 2440.101,-122 2300.899,-122 2300.899,-86 2467.101,-86 2467.101,-122"/>
<text text-anchor="middle" x="2384" y="-99.8" font-family="Times,serif" font-size="14.00" fill="#000000">PrestationsRoutingModule</text>
</g>
<!-- PrestationsRoutingModule&#45;&gt;PrestationsModule -->
<g id="edge17" class="edge">
<title>PrestationsRoutingModule&#45;&gt;PrestationsModule</title>
<path fill="none" stroke="#000000" d="M2384,-122.0267C2384,-142.7672 2384,-174 2384,-174 2384,-174 2265.5806,-174 2265.5806,-174"/>
<polygon fill="#000000" stroke="#000000" points="2265.5807,-170.5001 2255.5806,-174 2265.5806,-177.5001 2265.5807,-170.5001"/>
</g>
<!-- SharedModule -->
<g id="node22" class="node">
<title>SharedModule</title>
<polygon fill="#8dd3c7" stroke="#000000" points="2583.4231,-122 2580.4231,-126 2559.4231,-126 2556.4231,-122 2484.5769,-122 2484.5769,-86 2583.4231,-86 2583.4231,-122"/>
<text text-anchor="middle" x="2534" y="-99.8" font-family="Times,serif" font-size="14.00" fill="#000000">SharedModule</text>
</g>
<!-- SharedModule&#45;&gt;PrestationsModule -->
<g id="edge18" class="edge">
<title>SharedModule&#45;&gt;PrestationsModule</title>
<path fill="none" stroke="#000000" d="M2534,-122.1985C2534,-146.3563 2534,-186 2534,-186 2534,-186 2265.6064,-186 2265.6064,-186"/>
<polygon fill="#000000" stroke="#000000" points="2265.6064,-182.5001 2255.6064,-186 2265.6064,-189.5001 2265.6064,-182.5001"/>
</g>
<!-- StateDirective  -->
<g id="node27" class="node">
<title>StateDirective </title>
<polygon fill="#fb8072" stroke="#000000" points="3102.5767,-198 3003.4233,-198 3003.4233,-162 3102.5767,-162 3102.5767,-198"/>
<text text-anchor="middle" x="3053" y="-175.8" font-family="Times,serif" font-size="14.00" fill="#000000">StateDirective </text>
</g>
<!-- SharedModule&#45;&gt;StateDirective  -->
<g id="edge23" class="edge">
<title>SharedModule&#45;&gt;StateDirective </title>
<path fill="none" stroke="#000000" stroke-dasharray="5,2" d="M2583.2942,-106C2712.8453,-106 3053,-106 3053,-106 3053,-106 3053,-151.7079 3053,-151.7079"/>
<polygon fill="#000000" stroke="#000000" points="3049.5001,-151.7078 3053,-161.7079 3056.5001,-151.7079 3049.5001,-151.7078"/>
</g>
<!-- TableauComponent  -->
<g id="node28" class="node">
<title>TableauComponent </title>
<polygon fill="#fb8072" stroke="#000000" points="2984.9194,-198 2855.0806,-198 2855.0806,-162 2984.9194,-162 2984.9194,-198"/>
<text text-anchor="middle" x="2920" y="-175.8" font-family="Times,serif" font-size="14.00" fill="#000000">TableauComponent </text>
</g>
<!-- SharedModule&#45;&gt;TableauComponent  -->
<g id="edge24" class="edge">
<title>SharedModule&#45;&gt;TableauComponent </title>
<path fill="none" stroke="#000000" stroke-dasharray="5,2" d="M2583.2792,-110C2687.34,-110 2920,-110 2920,-110 2920,-110 2920,-151.9733 2920,-151.9733"/>
<polygon fill="#000000" stroke="#000000" points="2916.5001,-151.9732 2920,-161.9733 2923.5001,-151.9733 2916.5001,-151.9732"/>
</g>
<!-- TemplatesModule  -->
<g id="node29" class="node">
<title>TemplatesModule </title>
<polygon fill="#fb8072" stroke="#000000" points="2836.8631,-198 2715.1369,-198 2715.1369,-162 2836.8631,-162 2836.8631,-198"/>
<text text-anchor="middle" x="2776" y="-175.8" font-family="Times,serif" font-size="14.00" fill="#000000">TemplatesModule </text>
</g>
<!-- SharedModule&#45;&gt;TemplatesModule  -->
<g id="edge25" class="edge">
<title>SharedModule&#45;&gt;TemplatesModule </title>
<path fill="none" stroke="#000000" stroke-dasharray="5,2" d="M2583.264,-114C2654.0212,-114 2776,-114 2776,-114 2776,-114 2776,-151.9652 2776,-151.9652"/>
<polygon fill="#000000" stroke="#000000" points="2772.5001,-151.9652 2776,-161.9652 2779.5001,-151.9652 2772.5001,-151.9652"/>
</g>
<!-- TotalPipe  -->
<g id="node30" class="node">
<title>TotalPipe </title>
<polygon fill="#fb8072" stroke="#000000" points="2696.9362,-198 2623.0638,-198 2623.0638,-162 2696.9362,-162 2696.9362,-198"/>
<text text-anchor="middle" x="2660" y="-175.8" font-family="Times,serif" font-size="14.00" fill="#000000">TotalPipe </text>
</g>
<!-- SharedModule&#45;&gt;TotalPipe  -->
<g id="edge26" class="edge">
<title>SharedModule&#45;&gt;TotalPipe </title>
<path fill="none" stroke="#000000" stroke-dasharray="5,2" d="M2583.4369,-118C2618.7365,-118 2660,-118 2660,-118 2660,-118 2660,-151.7333 2660,-151.7333"/>
<polygon fill="#000000" stroke="#000000" points="2656.5001,-151.7333 2660,-161.7333 2663.5001,-151.7333 2656.5001,-151.7333"/>
</g>
<!-- StateClientDirective -->
<g id="node23" class="node">
<title>StateClientDirective</title>
<polygon fill="#ffffb3" stroke="#000000" points="3603.2991,-198 3472.7009,-198 3472.7009,-162 3603.2991,-162 3603.2991,-198"/>
<text text-anchor="middle" x="3538" y="-175.8" font-family="Times,serif" font-size="14.00" fill="#000000">StateClientDirective</text>
</g>
<!-- StateClientDirective&#45;&gt;SharedModule -->
<g id="edge19" class="edge">
<title>StateClientDirective&#45;&gt;SharedModule</title>
<path fill="none" stroke="#000000" d="M3538,-161.7872C3538,-135.4889 3538,-90 3538,-90 3538,-90 2593.4461,-90 2593.4461,-90"/>
<polygon fill="#000000" stroke="#000000" points="2593.4461,-86.5001 2583.4461,-90 2593.446,-93.5001 2593.4461,-86.5001"/>
</g>
<!-- StateDirective -->
<g id="node24" class="node">
<title>StateDirective</title>
<polygon fill="#ffffb3" stroke="#000000" points="3455.0758,-198 3358.9242,-198 3358.9242,-162 3455.0758,-162 3455.0758,-198"/>
<text text-anchor="middle" x="3407" y="-175.8" font-family="Times,serif" font-size="14.00" fill="#000000">StateDirective</text>
</g>
<!-- StateDirective&#45;&gt;SharedModule -->
<g id="edge20" class="edge">
<title>StateDirective&#45;&gt;SharedModule</title>
<path fill="none" stroke="#000000" d="M3407,-161.7616C3407,-136.5171 3407,-94 3407,-94 3407,-94 2593.4376,-94 2593.4376,-94"/>
<polygon fill="#000000" stroke="#000000" points="2593.4376,-90.5001 2583.4376,-94 2593.4376,-97.5001 2593.4376,-90.5001"/>
</g>
<!-- TableauComponent -->
<g id="node25" class="node">
<title>TableauComponent</title>
<polygon fill="#ffffb3" stroke="#000000" points="3341.4201,-198 3214.5799,-198 3214.5799,-162 3341.4201,-162 3341.4201,-198"/>
<text text-anchor="middle" x="3278" y="-175.8" font-family="Times,serif" font-size="14.00" fill="#000000">TableauComponent</text>
</g>
<!-- TableauComponent&#45;&gt;SharedModule -->
<g id="edge21" class="edge">
<title>TableauComponent&#45;&gt;SharedModule</title>
<path fill="none" stroke="#000000" d="M3278,-161.8015C3278,-137.6437 3278,-98 3278,-98 3278,-98 2593.3921,-98 2593.3921,-98"/>
<polygon fill="#000000" stroke="#000000" points="2593.3921,-94.5001 2583.3921,-98 2593.3921,-101.5001 2593.3921,-94.5001"/>
</g>
<!-- TotalPipe -->
<g id="node26" class="node">
<title>TotalPipe</title>
<polygon fill="#ffffb3" stroke="#000000" points="3197.4376,-198 3126.5624,-198 3126.5624,-162 3197.4376,-162 3197.4376,-198"/>
<text text-anchor="middle" x="3162" y="-175.8" font-family="Times,serif" font-size="14.00" fill="#000000">TotalPipe</text>
</g>
<!-- TotalPipe&#45;&gt;SharedModule -->
<g id="edge22" class="edge">
<title>TotalPipe&#45;&gt;SharedModule</title>
<path fill="none" stroke="#000000" d="M3162,-161.9092C3162,-138.8672 3162,-102 3162,-102 3162,-102 2593.2781,-102 2593.2781,-102"/>
<polygon fill="#000000" stroke="#000000" points="2593.2781,-98.5001 2583.2781,-102 2593.2781,-105.5001 2593.2781,-98.5001"/>
</g>
<!-- TemplateAComponent -->
<g id="node31" class="node">
<title>TemplateAComponent</title>
<polygon fill="#ffffb3" stroke="#000000" points="3953.3075,-122 3808.6925,-122 3808.6925,-86 3953.3075,-86 3953.3075,-122"/>
<text text-anchor="middle" x="3881" y="-99.8" font-family="Times,serif" font-size="14.00" fill="#000000">TemplateAComponent</text>
</g>
<!-- TemplatesModule -->
<g id="node33" class="node">
<title>TemplatesModule</title>
<polygon fill="#8dd3c7" stroke="#000000" points="3778.8627,-198 3775.8627,-202 3754.8627,-202 3751.8627,-198 3661.1373,-198 3661.1373,-162 3778.8627,-162 3778.8627,-198"/>
<text text-anchor="middle" x="3720" y="-175.8" font-family="Times,serif" font-size="14.00" fill="#000000">TemplatesModule</text>
</g>
<!-- TemplateAComponent&#45;&gt;TemplatesModule -->
<g id="edge27" class="edge">
<title>TemplateAComponent&#45;&gt;TemplatesModule</title>
<path fill="none" stroke="#000000" d="M3905.0512,-122.0267C3905.0512,-142.7672 3905.0512,-174 3905.0512,-174 3905.0512,-174 3789.0601,-174 3789.0601,-174"/>
<polygon fill="#000000" stroke="#000000" points="3789.0602,-170.5001 3779.0601,-174 3789.0601,-177.5001 3789.0602,-170.5001"/>
</g>
<!-- TemplateBComponent -->
<g id="node32" class="node">
<title>TemplateBComponent</title>
<polygon fill="#ffffb3" stroke="#000000" points="3790.5379,-122 3647.4621,-122 3647.4621,-86 3790.5379,-86 3790.5379,-122"/>
<text text-anchor="middle" x="3719" y="-99.8" font-family="Times,serif" font-size="14.00" fill="#000000">TemplateBComponent</text>
</g>
<!-- TemplateBComponent&#45;&gt;TemplatesModule -->
<g id="edge28" class="edge">
<title>TemplateBComponent&#45;&gt;TemplatesModule</title>
<path fill="none" stroke="#000000" d="M3720,-122.0109C3720,-122.0109 3720,-151.855 3720,-151.855"/>
<polygon fill="#000000" stroke="#000000" points="3716.5001,-151.8549 3720,-161.855 3723.5001,-151.855 3716.5001,-151.8549"/>
</g>
<!-- TemplateAComponent  -->
<g id="node34" class="node">
<title>TemplateAComponent </title>
<polygon fill="#fb8072" stroke="#000000" points="3955.8073,-274 3808.1927,-274 3808.1927,-238 3955.8073,-238 3955.8073,-274"/>
<text text-anchor="middle" x="3882" y="-251.8" font-family="Times,serif" font-size="14.00" fill="#000000">TemplateAComponent </text>
</g>
<!-- TemplatesModule&#45;&gt;TemplateAComponent  -->
<g id="edge29" class="edge">
<title>TemplatesModule&#45;&gt;TemplateAComponent </title>
<path fill="none" stroke="#000000" stroke-dasharray="5,2" d="M3778.8734,-186C3815.9912,-186 3856.9488,-186 3856.9488,-186 3856.9488,-186 3856.9488,-227.9733 3856.9488,-227.9733"/>
<polygon fill="#000000" stroke="#000000" points="3853.4489,-227.9732 3856.9488,-237.9733 3860.4489,-227.9733 3853.4489,-227.9732"/>
</g>
<!-- TemplateBComponent  -->
<g id="node35" class="node">
<title>TemplateBComponent </title>
<polygon fill="#fb8072" stroke="#000000" points="3790.5372,-274 3643.4628,-274 3643.4628,-238 3790.5372,-238 3790.5372,-274"/>
<text text-anchor="middle" x="3717" y="-251.8" font-family="Times,serif" font-size="14.00" fill="#000000">TemplateBComponent </text>
</g>
<!-- TemplatesModule&#45;&gt;TemplateBComponent  -->
<g id="edge30" class="edge">
<title>TemplatesModule&#45;&gt;TemplateBComponent </title>
<path fill="none" stroke="#000000" stroke-dasharray="5,2" d="M3720,-198.0109C3720,-198.0109 3720,-227.855 3720,-227.855"/>
<polygon fill="#000000" stroke="#000000" points="3716.5001,-227.8549 3720,-237.855 3723.5001,-227.855 3716.5001,-227.8549"/>
</g>
<!-- FooterComponent -->
<g id="node36" class="node">
<title>FooterComponent</title>
<polygon fill="#ffffb3" stroke="#000000" points="639.8809,-122 522.1191,-122 522.1191,-86 639.8809,-86 639.8809,-122"/>
<text text-anchor="middle" x="581" y="-99.8" font-family="Times,serif" font-size="14.00" fill="#000000">FooterComponent</text>
</g>
<!-- FooterComponent&#45;&gt;UiModule -->
<g id="edge31" class="edge">
<title>FooterComponent&#45;&gt;UiModule</title>
<path fill="none" stroke="#000000" d="M564.2781,-122.1467C564.2781,-135.7395 564.2781,-152 564.2781,-152 564.2781,-152 334.0641,-152 334.0641,-152 334.0641,-152 334.0641,-152.9793 334.0641,-152.9793"/>
<polygon fill="#000000" stroke="#000000" points="330.5642,-151.793 334.0641,-161.793 337.5642,-151.7931 330.5642,-151.793"/>
</g>
<!-- HeaderComponent -->
<g id="node37" class="node">
<title>HeaderComponent</title>
<polygon fill="#ffffb3" stroke="#000000" points="503.7437,-122 382.2563,-122 382.2563,-86 503.7437,-86 503.7437,-122"/>
<text text-anchor="middle" x="443" y="-99.8" font-family="Times,serif" font-size="14.00" fill="#000000">HeaderComponent</text>
</g>
<!-- HeaderComponent&#45;&gt;UiModule -->
<g id="edge32" class="edge">
<title>HeaderComponent&#45;&gt;UiModule</title>
<path fill="none" stroke="#000000" d="M438.7577,-122.1097C438.7577,-131.897 438.7577,-142 438.7577,-142 438.7577,-142 319.3547,-142 319.3547,-142 319.3547,-142 319.3547,-151.8903 319.3547,-151.8903"/>
<polygon fill="#000000" stroke="#000000" points="315.8548,-151.8903 319.3547,-161.8903 322.8548,-151.8904 315.8548,-151.8903"/>
</g>
<!-- NavComponent -->
<g id="node38" class="node">
<title>NavComponent</title>
<polygon fill="#ffffb3" stroke="#000000" points="364.1542,-122 259.8458,-122 259.8458,-86 364.1542,-86 364.1542,-122"/>
<text text-anchor="middle" x="312" y="-99.8" font-family="Times,serif" font-size="14.00" fill="#000000">NavComponent</text>
</g>
<!-- NavComponent&#45;&gt;UiModule -->
<g id="edge33" class="edge">
<title>NavComponent&#45;&gt;UiModule</title>
<path fill="none" stroke="#000000" d="M304.6453,-122.0109C304.6453,-122.0109 304.6453,-151.855 304.6453,-151.855"/>
<polygon fill="#000000" stroke="#000000" points="301.1454,-151.8549 304.6453,-161.855 308.1454,-151.855 301.1454,-151.8549"/>
</g>
<!-- UiComponent -->
<g id="node39" class="node">
<title>UiComponent</title>
<polygon fill="#ffffb3" stroke="#000000" points="241.8302,-122 146.1698,-122 146.1698,-86 241.8302,-86 241.8302,-122"/>
<text text-anchor="middle" x="194" y="-99.8" font-family="Times,serif" font-size="14.00" fill="#000000">UiComponent</text>
</g>
<!-- UiComponent&#45;&gt;UiModule -->
<g id="edge34" class="edge">
<title>UiComponent&#45;&gt;UiModule</title>
<path fill="none" stroke="#000000" d="M241.9177,-104C249.66,-104 255.1964,-104 255.1964,-104 255.1964,-104 255.1964,-180 255.1964,-180 255.1964,-180 265.3831,-180 265.3831,-180"/>
<polygon fill="#000000" stroke="#000000" points="265.3832,-183.5001 275.3831,-180 265.3831,-176.5001 265.3832,-183.5001"/>
</g>
</g>
</svg>
